<svg width="1920" height="983" xmlns="http://www.w3.org/2000/svg"><path d="M-125-131l-58 688 76-527zM-125-131l18 161L23-94z" fill="#fff" stroke="#fff"/><path d="M-125-131L23-94l206-77z" fill="#f9f9f9" stroke="#f9f9f9"/><path d="M23-94L-107 30l218 66z" fill="#fbfbfb" stroke="#fbfbfb"/><path d="M23-94l88 190 118-267z" fill="#f6f6f6" stroke="#f6f6f6"/><path d="M229-171L111 96l178 87z" fill="#f1f1f1" stroke="#f1f1f1"/><path d="M229-171l60 354 153-59z" fill="#ececec" stroke="#ececec"/><path d="M229-171l213 295 77-203z" fill="#e9e9e9" stroke="#e9e9e9"/><path d="M229-171l290 92 254-8z" fill="#e4e4e4" stroke="#e4e4e4"/><path d="M229-171l544 84 396-90z" fill="#d9d9d9" stroke="#d9d9d9"/><path d="M229-171l940-6 67-3z" fill="#d0d0d0" stroke="#d0d0d0"/><path d="M519-79l-77 203 230-39z" fill="#e2e2e2" stroke="#e2e2e2"/><path d="M519-79L672 85 773-87z" fill="#ddd" stroke="#ddd"/><path d="M773-87L672 85l283 15z" fill="#d5d5d5" stroke="#d5d5d5"/><path d="M773-87l182 187 27-155z" fill="#cecece" stroke="#cecece"/><path d="M773-87l209 32 187-122z" fill="#cacaca" stroke="#cacaca"/><path d="M982-55l-27 155 87-28z" fill="#c8c8c8" stroke="#c8c8c8"/><path d="M982-55l60 127 127-249z" fill="#c2c2c2" stroke="#c2c2c2"/><path d="M1169-177L1042 72l173 95z" fill="#bcbcbc" stroke="#bcbcbc"/><path d="M1169-177l46 344 21-347z" fill="#b7b7b7" stroke="#b7b7b7"/><path d="M1236-180l-21 347 200-282z" fill="#b0b0b0" stroke="#b0b0b0"/><path d="M1236-180l179 65 299 32z" fill="#a0a0a0" stroke="#a0a0a0"/><path d="M1236-180l478 97 203-26z" fill="#909090" stroke="#909090"/><path d="M1236-180l681 71 242-33z" fill="#828282" stroke="#828282"/><path d="M1415-115l-200 282 218 52z" fill="#aaa" stroke="#aaa"/><path d="M1415-115l18 334 108-123z" fill="#a0a0a0" stroke="#a0a0a0"/><path d="M1415-115l126 211 173-179z" fill="#969696" stroke="#969696"/><path d="M1714-83L1541 96l168 21z" fill="#8d8d8d" stroke="#8d8d8d"/><path d="M1714-83l-5 200 137-49z" fill="#838383" stroke="#838383"/><path d="M1714-83l132 151 71-177zM1917-109l-71 177 244 90zM1917-109l173 267 69-300z" fill="gray" stroke="gray"/><path d="M2159-142l-69 300-2 169z" fill="gray" stroke="gray"/><path d="M2159-142l-71 469 41 324z" fill="#757575" stroke="#757575"/><path d="M2159-142l-30 793 28 368z" fill="#565656" stroke="#565656"/><path d="M-107 30l-76 527 161-249z" fill="#f3f3f3" stroke="#f3f3f3"/><path d="M-107 30l85 278 96-57z" fill="#f9f9f9" stroke="#f9f9f9"/><path d="M-107 30L74 251l37-155z" fill="#fafafa" stroke="#fafafa"/><path d="M111 96L74 251l187-11z" fill="#f1f1f1" stroke="#f1f1f1"/><path d="M111 96l150 144 28-57z" fill="#f0f0f0" stroke="#f0f0f0"/><path d="M289 183l-28 57 181-116z" fill="#eaeaea" stroke="#eaeaea"/><path d="M442 124L261 240l320 10z" fill="#e4e4e4" stroke="#e4e4e4"/><path d="M442 124l139 126 91-165z" fill="#e2e2e2" stroke="#e2e2e2"/><path d="M672 85l-91 165 119 64z" fill="#d9d9d9" stroke="#d9d9d9"/><path d="M672 85l28 229 252-89z" fill="#d2d2d2" stroke="#d2d2d2"/><path d="M672 85l280 140 3-125z" fill="#d1d1d1" stroke="#d1d1d1"/><path d="M955 100l-3 125 90-153z" fill="#c9c9c9" stroke="#c9c9c9"/><path d="M1042 72l-90 153 183 56z" fill="#c2c2c2" stroke="#c2c2c2"/><path d="M1042 72l93 209 80-114z" fill="#bcbcbc" stroke="#bcbcbc"/><path d="M1215 167l-80 114 89-61z" fill="#b3b3b3" stroke="#b3b3b3"/><path d="M1215 167l9 53 209-1z" fill="#adadad" stroke="#adadad"/><path d="M1541 96l-108 123 202 117z" fill="#939393" stroke="#939393"/><path d="M1541 96l94 240 74-219z" fill="#8e8e8e" stroke="#8e8e8e"/><path d="M1709 117l-74 219 345-67z" fill="#7a7a7a" stroke="#7a7a7a"/><path d="M1709 117l271 152-134-201zM1846 68l134 201 110-111z" fill="gray" stroke="gray"/><path d="M2090 158l-110 111 108 58z" fill="#787878" stroke="#787878"/><path d="M-22 308l-161 249 132 74z" fill="#d8d8d8" stroke="#d8d8d8"/><path d="M-22 308l-29 323 154-48z" fill="#d2d2d2" stroke="#d2d2d2"/><path d="M-22 308l125 275-29-332z" fill="#e2e2e2" stroke="#e2e2e2"/><path d="M74 251l29 332 158-343z" fill="#e1e1e1" stroke="#e1e1e1"/><path d="M261 240L103 583l191-16z" fill="#cfcfcf" stroke="#cfcfcf"/><path d="M261 240l33 327 208-87z" fill="#cecece" stroke="#cecece"/><path d="M261 240l241 240 79-230z" fill="#d8d8d8" stroke="#d8d8d8"/><path d="M581 250l-79 230 198-166z" fill="#cecece" stroke="#cecece"/><path d="M700 314L502 480l117 95z" fill="#bfbfbf" stroke="#bfbfbf"/><path d="M700 314l-81 261 318-84z" fill="#b6b6b6" stroke="#b6b6b6"/><path d="M700 314l237 177 15-266z" fill="silver" stroke="silver"/><path d="M952 225l-15 266 198-210z" fill="#b7b7b7" stroke="#b7b7b7"/><path d="M1135 281L937 491l225 23z" fill="#a4a4a4" stroke="#a4a4a4"/><path d="M1135 281l27 233 175-81z" fill="#9c9c9c" stroke="#9c9c9c"/><path d="M1135 281l202 152-113-213z" fill="#a8a8a8" stroke="#a8a8a8"/><path d="M1224 220l113 213 96-214z" fill="#a1a1a1" stroke="#a1a1a1"/><path d="M1433 219l-96 214 100 78z" fill="#8e8e8e" stroke="#8e8e8e"/><path d="M1433 219l4 292 198-175z" fill="#898989" stroke="#898989"/><path d="M1635 336l-198 175 288-29z" fill="#737373" stroke="#737373"/><path d="M1635 336l90 146 255-213z" fill="#6d6d6d" stroke="#6d6d6d"/><path d="M1980 269l-255 213 101 35z" fill="#636363" stroke="#636363"/><path d="M1980 269l-154 248 262-190z" fill="#6b6b6b" stroke="#6b6b6b"/><path d="M2088 327l-262 190 271 16z" fill="#5e5e5e" stroke="#5e5e5e"/><path d="M2088 327l9 206 32 118z" fill="#575757" stroke="#575757"/><path d="M-183 557l48 370 84-296z" fill="#b0b0b0" stroke="#b0b0b0"/><path d="M103 583l-154 48 84 35z" fill="#bbb" stroke="#bbb"/><path d="M103 583l-70 83 320 17z" fill="#b1b1b1" stroke="#b1b1b1"/><path d="M103 583l250 100-59-116z" fill="#b4b4b4" stroke="#b4b4b4"/><path d="M294 567l59 116 149-203z" fill="#b3b3b3" stroke="#b3b3b3"/><path d="M502 480L353 683l266-108z" fill="#aeaeae" stroke="#aeaeae"/><path d="M619 575L353 683l152 87z" fill="#9c9c9c" stroke="#9c9c9c"/><path d="M619 575L505 770l117-77z" fill="#979797" stroke="#979797"/><path d="M619 575l3 118 223 8z" fill="#969696" stroke="#969696"/><path d="M619 575l226 126 92-210z" fill="#9c9c9c" stroke="#9c9c9c"/><path d="M937 491l-92 210 251-7z" fill="#8b8b8b" stroke="#8b8b8b"/><path d="M937 491l159 203 66-180z" fill="#8e8e8e" stroke="#8e8e8e"/><path d="M1162 514l-66 180 192 86z" fill="#737373" stroke="#737373"/><path d="M1162 514l126 266 149-131z" fill="#6d6d6d" stroke="#6d6d6d"/><path d="M1162 514l275 135-100-216z" fill="#818181" stroke="#818181"/><path d="M1337 433l100 216V511z" fill="#787878" stroke="#787878"/><path d="M1437 511v138l260 55zM1437 511l260 193 28-222z" fill="#5c5c5c" stroke="#5c5c5c"/><path d="M1725 482l-28 222 129-187z" fill="#505050" stroke="#505050"/><path d="M1826 517l-129 187 234 45z" fill="#3b3b3b" stroke="#3b3b3b"/><path d="M1826 517l105 232 166-216z" fill="#464646" stroke="#464646"/><path d="M2097 533l-166 216 198-98z" fill="#3d3d3d" stroke="#3d3d3d"/><path d="M-51 631l-84 296L33 666z" fill="#a6a6a6" stroke="#a6a6a6"/><path d="M33 666l-168 261 265-41z" fill="#909090" stroke="#909090"/><path d="M33 666l97 220 223-203z" fill="#9a9a9a" stroke="#9a9a9a"/><path d="M353 683L130 886l177 6z" fill="#858585" stroke="#858585"/><path d="M353 683l-46 209 198-122z" fill="#888" stroke="#888"/><path d="M505 770L307 892l227-4z" fill="#767676" stroke="#767676"/><path d="M505 770l29 118 88-195z" fill="#818181" stroke="#818181"/><path d="M622 693l-88 195 219-72z" fill="#797979" stroke="#797979"/><path d="M622 693l131 123 92-115z" fill="#818181" stroke="#818181"/><path d="M845 701l-92 115 179 17z" fill="#707070" stroke="#707070"/><path d="M845 701l87 132 164-139z" fill="#737373" stroke="#737373"/><path d="M1096 694L932 833l224 35z" fill="#5e5e5e" stroke="#5e5e5e"/><path d="M1096 694l60 174 132-88z" fill="#585858" stroke="#585858"/><path d="M1288 780l-132 88 164 77z" fill="#404040" stroke="#404040"/><path d="M1288 780l32 165 200-127z" fill="#383838" stroke="#383838"/><path d="M1288 780l232 38-83-169z" fill="#4b4b4b" stroke="#4b4b4b"/><path d="M1437 649l83 169 177-114z" fill="#434343" stroke="#434343"/><path d="M1697 704l-177 114 210 62z" fill="#282828" stroke="#282828"/><path d="M1697 704l33 176 201-131z" fill="#202020" stroke="#202020"/><path d="M1931 749l-201 131 154 53z" fill="#0e0e0e" stroke="#0e0e0e"/><path d="M1931 749l-47 184 232-60z" fill="#0f0f0f" stroke="#0f0f0f"/><path d="M1931 749l185 124 13-222z" fill="#242424" stroke="#242424"/><path d="M2129 651l-13 222 41 146z" fill="#101010" stroke="#101010"/><path d="M-135 927l112 230 153-110z" fill="#7c7c7c" stroke="#7c7c7c"/><path d="M-135 927l265 120V886z" fill="#7a7a7a" stroke="#7a7a7a"/><path d="M130 886v161l177-155z" fill="#737373" stroke="#737373"/><path d="M307 892l-177 155 185 56z" fill="#707070" stroke="#707070"/><path d="M307 892l8 211 219-215z" fill="#6a6a6a" stroke="#6a6a6a"/><path d="M534 888l-219 215 127 64z" fill="#686868" stroke="#686868"/><path d="M534 888l-92 279 329-140z" fill="#616161" stroke="#616161"/><path d="M534 888l237 139-18-211z" fill="#5d5d5d" stroke="#5d5d5d"/><path d="M753 816l18 211 161-194z" fill="#595959" stroke="#595959"/><path d="M932 833l-161 194 109 51z" fill="#515151" stroke="#515151"/><path d="M932 833l-52 245 194 4z" fill="#4b4b4b" stroke="#4b4b4b"/><path d="M932 833l142 249 82-214z" fill="#444" stroke="#444"/><path d="M1156 868l-82 214 246-137z" fill="#393939" stroke="#393939"/><path d="M1320 945l-246 137 282-32z" fill="#343434" stroke="#343434"/><path d="M1320 945l36 105 210-26z" fill="#252525" stroke="#252525"/><path d="M1320 945l246 79-46-206z" fill="#1f1f1f" stroke="#1f1f1f"/><path d="M1520 818l46 206 164-144z" fill="#141414" stroke="#141414"/><path d="M1730 880l-164 144 148 142z" fill="#0c0c0c" stroke="#0c0c0c"/><path d="M1730 880l-16 286 170-233z" fill="#020202" stroke="#020202"/><path d="M1884 933l-170 233 188-74zM1884 933l18 159 255-73zM1884 933l273 86-41-146z" stroke="#000"/><path d="M-23 1157l465 10-127-64z" fill="#707070" stroke="#707070"/><path d="M-23 1157l338-54-185-56z" fill="#757575" stroke="#757575"/><path d="M442 1167l1272-1-640-84z" fill="#424242" stroke="#424242"/><path d="M442 1167l632-85-194-4z" fill="#555" stroke="#555"/><path d="M442 1167l438-89-109-51z" fill="#5b5b5b" stroke="#5b5b5b"/><path d="M1074 1082l640 84-358-116z" fill="#282828" stroke="#282828"/><path d="M1356 1050l358 116-148-142z" fill="#181818" stroke="#181818"/><path d="M1714 1166l443-147-255 73z" stroke="#000"/><filter id="a"><feTurbulence type="fractalNoise" fill="#F00" baseFrequency=".7" numOctaves="3" stitchTiles="stitch"/><feComponentTransfer><feFuncR type="linear" slope="2" intercept="-.5"/><feFuncG type="linear" slope="2" intercept="-.5"/><feFuncB type="linear" slope="2" intercept="-.5"/></feComponentTransfer><feColorMatrix values="0.3333 0.3333 0.3333 0 0 0.3333 0.3333 0.3333 0 0 0.3333 0.3333 0.3333 0 0 0 0 0 1 0"/></filter><rect opacity=".4" width="100%" height="100%" filter="url(#a)"/></svg>