<svg width="1920" height="983" xmlns="http://www.w3.org/2000/svg"><g><path d="M-125,-131L-183,557L-107,30Z" fill="#ffffff" stroke="#ffffff"/><path d="M-125,-131L-107,30L23,-94Z" fill="#ffffff" stroke="#ffffff"/><path d="M-125,-131L23,-94L229,-171Z" fill="#f9f9f9" stroke="#f9f9f9"/><path d="M23,-94L-107,30L111,96Z" fill="#fbfbfb" stroke="#fbfbfb"/><path d="M23,-94L111,96L229,-171Z" fill="#f6f6f6" stroke="#f6f6f6"/><path d="M229,-171L111,96L289,183Z" fill="#f1f1f1" stroke="#f1f1f1"/><path d="M229,-171L289,183L442,124Z" fill="#ececec" stroke="#ececec"/><path d="M229,-171L442,124L519,-79Z" fill="#e9e9e9" stroke="#e9e9e9"/><path d="M229,-171L519,-79L773,-87Z" fill="#e4e4e4" stroke="#e4e4e4"/><path d="M229,-171L773,-87L1169,-177Z" fill="#d9d9d9" stroke="#d9d9d9"/><path d="M229,-171L1169,-177L1236,-180Z" fill="#d0d0d0" stroke="#d0d0d0"/><path d="M519,-79L442,124L672,85Z" fill="#e2e2e2" stroke="#e2e2e2"/><path d="M519,-79L672,85L773,-87Z" fill="#dddddd" stroke="#dddddd"/><path d="M773,-87L672,85L955,100Z" fill="#d5d5d5" stroke="#d5d5d5"/><path d="M773,-87L955,100L982,-55Z" fill="#cecece" stroke="#cecece"/><path d="M773,-87L982,-55L1169,-177Z" fill="#cacaca" stroke="#cacaca"/><path d="M982,-55L955,100L1042,72Z" fill="#c8c8c8" stroke="#c8c8c8"/><path d="M982,-55L1042,72L1169,-177Z" fill="#c2c2c2" stroke="#c2c2c2"/><path d="M1169,-177L1042,72L1215,167Z" fill="#bcbcbc" stroke="#bcbcbc"/><path d="M1169,-177L1215,167L1236,-180Z" fill="#b7b7b7" stroke="#b7b7b7"/><path d="M1236,-180L1215,167L1415,-115Z" fill="#b0b0b0" stroke="#b0b0b0"/><path d="M1236,-180L1415,-115L1714,-83Z" fill="#a0a0a0" stroke="#a0a0a0"/><path d="M1236,-180L1714,-83L1917,-109Z" fill="#909090" stroke="#909090"/><path d="M1236,-180L1917,-109L2159,-142Z" fill="#828282" stroke="#828282"/><path d="M1415,-115L1215,167L1433,219Z" fill="#aaaaaa" stroke="#aaaaaa"/><path d="M1415,-115L1433,219L1541,96Z" fill="#a0a0a0" stroke="#a0a0a0"/><path d="M1415,-115L1541,96L1714,-83Z" fill="#969696" stroke="#969696"/><path d="M1714,-83L1541,96L1709,117Z" fill="#8d8d8d" stroke="#8d8d8d"/><path d="M1714,-83L1709,117L1846,68Z" fill="#838383" stroke="#838383"/><path d="M1714,-83L1846,68L1917,-109Z" fill="#808080" stroke="#808080"/><path d="M1917,-109L1846,68L2090,158Z" fill="#808080" stroke="#808080"/><path d="M1917,-109L2090,158L2159,-142Z" fill="#808080" stroke="#808080"/><path d="M2159,-142L2090,158L2088,327Z" fill="#808080" stroke="#808080"/><path d="M2159,-142L2088,327L2129,651Z" fill="#757575" stroke="#757575"/><path d="M2159,-142L2129,651L2157,1019Z" fill="#565656" stroke="#565656"/><path d="M-107,30L-183,557L-22,308Z" fill="#f3f3f3" stroke="#f3f3f3"/><path d="M-107,30L-22,308L74,251Z" fill="#f9f9f9" stroke="#f9f9f9"/><path d="M-107,30L74,251L111,96Z" fill="#fafafa" stroke="#fafafa"/><path d="M111,96L74,251L261,240Z" fill="#f1f1f1" stroke="#f1f1f1"/><path d="M111,96L261,240L289,183Z" fill="#f0f0f0" stroke="#f0f0f0"/><path d="M289,183L261,240L442,124Z" fill="#eaeaea" stroke="#eaeaea"/><path d="M442,124L261,240L581,250Z" fill="#e4e4e4" stroke="#e4e4e4"/><path d="M442,124L581,250L672,85Z" fill="#e2e2e2" stroke="#e2e2e2"/><path d="M672,85L581,250L700,314Z" fill="#d9d9d9" stroke="#d9d9d9"/><path d="M672,85L700,314L952,225Z" fill="#d2d2d2" stroke="#d2d2d2"/><path d="M672,85L952,225L955,100Z" fill="#d1d1d1" stroke="#d1d1d1"/><path d="M955,100L952,225L1042,72Z" fill="#c9c9c9" stroke="#c9c9c9"/><path d="M1042,72L952,225L1135,281Z" fill="#c2c2c2" stroke="#c2c2c2"/><path d="M1042,72L1135,281L1215,167Z" fill="#bcbcbc" stroke="#bcbcbc"/><path d="M1215,167L1135,281L1224,220Z" fill="#b3b3b3" stroke="#b3b3b3"/><path d="M1215,167L1224,220L1433,219Z" fill="#adadad" stroke="#adadad"/><path d="M1541,96L1433,219L1635,336Z" fill="#939393" stroke="#939393"/><path d="M1541,96L1635,336L1709,117Z" fill="#8e8e8e" stroke="#8e8e8e"/><path d="M1709,117L1635,336L1980,269Z" fill="#7a7a7a" stroke="#7a7a7a"/><path d="M1709,117L1980,269L1846,68Z" fill="#808080" stroke="#808080"/><path d="M1846,68L1980,269L2090,158Z" fill="#808080" stroke="#808080"/><path d="M2090,158L1980,269L2088,327Z" fill="#787878" stroke="#787878"/><path d="M-22,308L-183,557L-51,631Z" fill="#d8d8d8" stroke="#d8d8d8"/><path d="M-22,308L-51,631L103,583Z" fill="#d2d2d2" stroke="#d2d2d2"/><path d="M-22,308L103,583L74,251Z" fill="#e2e2e2" stroke="#e2e2e2"/><path d="M74,251L103,583L261,240Z" fill="#e1e1e1" stroke="#e1e1e1"/><path d="M261,240L103,583L294,567Z" fill="#cfcfcf" stroke="#cfcfcf"/><path d="M261,240L294,567L502,480Z" fill="#cecece" stroke="#cecece"/><path d="M261,240L502,480L581,250Z" fill="#d8d8d8" stroke="#d8d8d8"/><path d="M581,250L502,480L700,314Z" fill="#cecece" stroke="#cecece"/><path d="M700,314L502,480L619,575Z" fill="#bfbfbf" stroke="#bfbfbf"/><path d="M700,314L619,575L937,491Z" fill="#b6b6b6" stroke="#b6b6b6"/><path d="M700,314L937,491L952,225Z" fill="#c0c0c0" stroke="#c0c0c0"/><path d="M952,225L937,491L1135,281Z" fill="#b7b7b7" stroke="#b7b7b7"/><path d="M1135,281L937,491L1162,514Z" fill="#a4a4a4" stroke="#a4a4a4"/><path d="M1135,281L1162,514L1337,433Z" fill="#9c9c9c" stroke="#9c9c9c"/><path d="M1135,281L1337,433L1224,220Z" fill="#a8a8a8" stroke="#a8a8a8"/><path d="M1224,220L1337,433L1433,219Z" fill="#a1a1a1" stroke="#a1a1a1"/><path d="M1433,219L1337,433L1437,511Z" fill="#8e8e8e" stroke="#8e8e8e"/><path d="M1433,219L1437,511L1635,336Z" fill="#898989" stroke="#898989"/><path d="M1635,336L1437,511L1725,482Z" fill="#737373" stroke="#737373"/><path d="M1635,336L1725,482L1980,269Z" fill="#6d6d6d" stroke="#6d6d6d"/><path d="M1980,269L1725,482L1826,517Z" fill="#636363" stroke="#636363"/><path d="M1980,269L1826,517L2088,327Z" fill="#6b6b6b" stroke="#6b6b6b"/><path d="M2088,327L1826,517L2097,533Z" fill="#5e5e5e" stroke="#5e5e5e"/><path d="M2088,327L2097,533L2129,651Z" fill="#575757" stroke="#575757"/><path d="M-183,557L-135,927L-51,631Z" fill="#b0b0b0" stroke="#b0b0b0"/><path d="M103,583L-51,631L33,666Z" fill="#bbbbbb" stroke="#bbbbbb"/><path d="M103,583L33,666L353,683Z" fill="#b1b1b1" stroke="#b1b1b1"/><path d="M103,583L353,683L294,567Z" fill="#b4b4b4" stroke="#b4b4b4"/><path d="M294,567L353,683L502,480Z" fill="#b3b3b3" stroke="#b3b3b3"/><path d="M502,480L353,683L619,575Z" fill="#aeaeae" stroke="#aeaeae"/><path d="M619,575L353,683L505,770Z" fill="#9c9c9c" stroke="#9c9c9c"/><path d="M619,575L505,770L622,693Z" fill="#979797" stroke="#979797"/><path d="M619,575L622,693L845,701Z" fill="#969696" stroke="#969696"/><path d="M619,575L845,701L937,491Z" fill="#9c9c9c" stroke="#9c9c9c"/><path d="M937,491L845,701L1096,694Z" fill="#8b8b8b" stroke="#8b8b8b"/><path d="M937,491L1096,694L1162,514Z" fill="#8e8e8e" stroke="#8e8e8e"/><path d="M1162,514L1096,694L1288,780Z" fill="#737373" stroke="#737373"/><path d="M1162,514L1288,780L1437,649Z" fill="#6d6d6d" stroke="#6d6d6d"/><path d="M1162,514L1437,649L1337,433Z" fill="#818181" stroke="#818181"/><path d="M1337,433L1437,649L1437,511Z" fill="#787878" stroke="#787878"/><path d="M1437,511L1437,649L1697,704Z" fill="#5c5c5c" stroke="#5c5c5c"/><path d="M1437,511L1697,704L1725,482Z" fill="#5c5c5c" stroke="#5c5c5c"/><path d="M1725,482L1697,704L1826,517Z" fill="#505050" stroke="#505050"/><path d="M1826,517L1697,704L1931,749Z" fill="#3b3b3b" stroke="#3b3b3b"/><path d="M1826,517L1931,749L2097,533Z" fill="#464646" stroke="#464646"/><path d="M2097,533L1931,749L2129,651Z" fill="#3d3d3d" stroke="#3d3d3d"/><path d="M-51,631L-135,927L33,666Z" fill="#a6a6a6" stroke="#a6a6a6"/><path d="M33,666L-135,927L130,886Z" fill="#909090" stroke="#909090"/><path d="M33,666L130,886L353,683Z" fill="#9a9a9a" stroke="#9a9a9a"/><path d="M353,683L130,886L307,892Z" fill="#858585" stroke="#858585"/><path d="M353,683L307,892L505,770Z" fill="#888888" stroke="#888888"/><path d="M505,770L307,892L534,888Z" fill="#767676" stroke="#767676"/><path d="M505,770L534,888L622,693Z" fill="#818181" stroke="#818181"/><path d="M622,693L534,888L753,816Z" fill="#797979" stroke="#797979"/><path d="M622,693L753,816L845,701Z" fill="#818181" stroke="#818181"/><path d="M845,701L753,816L932,833Z" fill="#707070" stroke="#707070"/><path d="M845,701L932,833L1096,694Z" fill="#737373" stroke="#737373"/><path d="M1096,694L932,833L1156,868Z" fill="#5e5e5e" stroke="#5e5e5e"/><path d="M1096,694L1156,868L1288,780Z" fill="#585858" stroke="#585858"/><path d="M1288,780L1156,868L1320,945Z" fill="#404040" stroke="#404040"/><path d="M1288,780L1320,945L1520,818Z" fill="#383838" stroke="#383838"/><path d="M1288,780L1520,818L1437,649Z" fill="#4b4b4b" stroke="#4b4b4b"/><path d="M1437,649L1520,818L1697,704Z" fill="#434343" stroke="#434343"/><path d="M1697,704L1520,818L1730,880Z" fill="#282828" stroke="#282828"/><path d="M1697,704L1730,880L1931,749Z" fill="#202020" stroke="#202020"/><path d="M1931,749L1730,880L1884,933Z" fill="#0e0e0e" stroke="#0e0e0e"/><path d="M1931,749L1884,933L2116,873Z" fill="#0f0f0f" stroke="#0f0f0f"/><path d="M1931,749L2116,873L2129,651Z" fill="#242424" stroke="#242424"/><path d="M2129,651L2116,873L2157,1019Z" fill="#101010" stroke="#101010"/><path d="M-135,927L-23,1157L130,1047Z" fill="#7c7c7c" stroke="#7c7c7c"/><path d="M-135,927L130,1047L130,886Z" fill="#7a7a7a" stroke="#7a7a7a"/><path d="M130,886L130,1047L307,892Z" fill="#737373" stroke="#737373"/><path d="M307,892L130,1047L315,1103Z" fill="#707070" stroke="#707070"/><path d="M307,892L315,1103L534,888Z" fill="#6a6a6a" stroke="#6a6a6a"/><path d="M534,888L315,1103L442,1167Z" fill="#686868" stroke="#686868"/><path d="M534,888L442,1167L771,1027Z" fill="#616161" stroke="#616161"/><path d="M534,888L771,1027L753,816Z" fill="#5d5d5d" stroke="#5d5d5d"/><path d="M753,816L771,1027L932,833Z" fill="#595959" stroke="#595959"/><path d="M932,833L771,1027L880,1078Z" fill="#515151" stroke="#515151"/><path d="M932,833L880,1078L1074,1082Z" fill="#4b4b4b" stroke="#4b4b4b"/><path d="M932,833L1074,1082L1156,868Z" fill="#444444" stroke="#444444"/><path d="M1156,868L1074,1082L1320,945Z" fill="#393939" stroke="#393939"/><path d="M1320,945L1074,1082L1356,1050Z" fill="#343434" stroke="#343434"/><path d="M1320,945L1356,1050L1566,1024Z" fill="#252525" stroke="#252525"/><path d="M1320,945L1566,1024L1520,818Z" fill="#1f1f1f" stroke="#1f1f1f"/><path d="M1520,818L1566,1024L1730,880Z" fill="#141414" stroke="#141414"/><path d="M1730,880L1566,1024L1714,1166Z" fill="#0c0c0c" stroke="#0c0c0c"/><path d="M1730,880L1714,1166L1884,933Z" fill="#020202" stroke="#020202"/><path d="M1884,933L1714,1166L1902,1092Z" fill="#000000" stroke="#000000"/><path d="M1884,933L1902,1092L2157,1019Z" fill="#000000" stroke="#000000"/><path d="M1884,933L2157,1019L2116,873Z" fill="#000000" stroke="#000000"/><path d="M-23,1157L442,1167L315,1103Z" fill="#707070" stroke="#707070"/><path d="M-23,1157L315,1103L130,1047Z" fill="#757575" stroke="#757575"/><path d="M442,1167L1714,1166L1074,1082Z" fill="#424242" stroke="#424242"/><path d="M442,1167L1074,1082L880,1078Z" fill="#555555" stroke="#555555"/><path d="M442,1167L880,1078L771,1027Z" fill="#5b5b5b" stroke="#5b5b5b"/><path d="M1074,1082L1714,1166L1356,1050Z" fill="#282828" stroke="#282828"/><path d="M1356,1050L1714,1166L1566,1024Z" fill="#181818" stroke="#181818"/><path d="M1714,1166L2157,1019L1902,1092Z" fill="#000000" stroke="#000000"/></g><filter id="noise"><feTurbulence type="fractalNoise" in="fillPaint" fill="#F00" baseFrequency="0.7" numOctaves="3" stitchTiles="stitch"/><feComponentTransfer><feFuncR type="linear" slope="2" intercept="-.5"/><feFuncG type="linear" slope="2" intercept="-.5"/><feFuncB type="linear" slope="2" intercept="-.5"/></feComponentTransfer><feColorMatrix type="matrix" values="0.3333 0.3333 0.3333 0 0 
 0.3333 0.3333 0.3333 0 0 
 0.3333 0.3333 0.3333 0 0 
 0 0 0 1 0"/></filter><rect opacity="0.4000000000000001" width="100%" height="100%" filter="url(#noise)"/></svg>